<svg width="119" height="26" viewBox="0 0 119 26" fill="none" xmlns="http://www.w3.org/2000/svg">
<ellipse cx="12.8394" cy="12.6105" rx="4.53158" ry="4.45083" fill="black"/>
<path d="M13.1949 9.82191C13.1641 9.8234 13.1358 9.83902 13.1182 9.86392L10.8182 13.1049C10.772 13.1701 10.8194 13.2594 10.9002 13.2594H12.4915L12.3005 15.6091C12.293 15.7085 12.4234 15.7544 12.4819 15.673L14.7819 12.4322C14.8281 12.3671 14.7808 12.2779 14.7001 12.2778H13.1086L13.2998 9.9278C13.3046 9.86863 13.2553 9.81883 13.1949 9.82191Z" fill="white"/>
<ellipse cx="8.40235" cy="1.20543" rx="1.2273" ry="1.20543" fill="black"/>
<ellipse cx="8.40235" cy="24.016" rx="1.2273" ry="1.20543" fill="black"/>
<ellipse cx="17.4656" cy="1.20543" rx="1.2273" ry="1.20543" fill="black"/>
<ellipse cx="17.4656" cy="24.016" rx="1.2273" ry="1.20543" fill="black"/>
<ellipse cx="24.4517" cy="17.1542" rx="1.2273" ry="1.20543" fill="black"/>
<ellipse cx="1.2273" cy="17.1542" rx="1.2273" ry="1.20543" fill="black"/>
<ellipse cx="24.4517" cy="8.2528" rx="1.2273" ry="1.20543" fill="black"/>
<ellipse cx="1.2273" cy="8.2528" rx="1.2273" ry="1.20543" fill="black"/>
<path d="M6.04219 7.97461H2.26587V8.53096H5.47574V11.8691H7.3639V11.22H6.04219V7.97461Z" fill="black"/>
<path d="M19.6368 7.97461H23.4131V8.53096H20.2032V11.8691H18.3151V11.22H19.6368V7.97461Z" fill="black"/>
<path d="M6.04219 17.4326H2.26587V16.8763H5.47574V13.5381H7.3639V14.1872H6.04219V17.4326Z" fill="black"/>
<path d="M19.6368 17.4326H23.4131V16.8763H20.2032V13.5381H18.3151V14.1872H19.6368V17.4326Z" fill="black"/>
<path d="M17.7488 19.2871V22.9961H17.1823V19.8434H13.7836V17.9889H14.4445V19.2871H17.7488Z" fill="black"/>
<path d="M8.11914 19.2871V22.9961H8.68559V19.8434H12.0843V17.9889H11.4234V19.2871H8.11914Z" fill="black"/>
<path d="M8.11914 5.93461V2.22559H8.68559V5.37826H12.0843V7.23277H11.4234V5.93461H8.11914Z" fill="black"/>
<path d="M17.7488 5.93461V2.22559H17.1823V5.37826H13.7836V7.23277H14.4445V5.93461H17.7488Z" fill="black"/>
<path d="M65.0614 19.3438C63.7681 19.3438 62.641 19.0527 61.6801 18.4706C60.7281 17.8796 59.9917 17.0504 59.4708 15.9831C58.9499 14.9158 58.6895 13.6544 58.6895 12.199V12.1857C58.6895 10.7391 58.9499 9.48656 59.4708 8.42807C60.0007 7.36075 60.7416 6.536 61.6935 5.95383C62.6545 5.37165 63.7681 5.08057 65.0344 5.08057C66.1301 5.08057 67.0821 5.28786 67.8903 5.70243C68.7076 6.11701 69.3587 6.65949 69.8437 7.32987C70.3376 8.00026 70.6475 8.73238 70.7732 9.52626L70.7867 9.64534H69.0489L69.0219 9.52626C68.8243 8.72356 68.3843 8.04436 67.7017 7.48865C67.0282 6.92412 66.1391 6.64185 65.0344 6.64185C64.1274 6.64185 63.3326 6.87119 62.65 7.32987C61.9764 7.77974 61.4511 8.42366 61.0739 9.26163C60.6967 10.0908 60.5081 11.0743 60.5081 12.2122V12.2254C60.5081 13.381 60.6967 14.3733 61.0739 15.2025C61.4511 16.0316 61.9809 16.6711 62.6635 17.121C63.355 17.562 64.1543 17.7825 65.0614 17.7825C66.1121 17.7825 66.9788 17.5179 67.6613 16.9887C68.3528 16.4506 68.8064 15.7538 69.0219 14.8981L69.0489 14.7791H70.8001L70.7732 14.8849C70.6385 15.7405 70.3107 16.5035 69.7898 17.1739C69.2779 17.8443 68.6178 18.3735 67.8095 18.7616C67.0012 19.1498 66.0852 19.3438 65.0614 19.3438Z" fill="black"/>
<path d="M51.0514 19.3438C49.7402 19.3438 48.6086 19.0571 47.6566 18.4838C46.7046 17.9016 45.9682 17.0813 45.4473 16.0228C44.9354 14.9555 44.6794 13.6985 44.6794 12.2519V12.2387C44.6794 10.8009 44.9354 9.5439 45.4473 8.46776C45.9682 7.39162 46.6956 6.55805 47.6297 5.96706C48.5637 5.37606 49.6548 5.08057 50.9032 5.08057C52.1515 5.08057 53.2292 5.36724 54.1363 5.9406C55.0523 6.50513 55.7573 7.30341 56.2513 8.33545C56.7542 9.36748 57.0057 10.5715 57.0057 11.9476V12.6356H45.5685V11.2463H56.1435L55.2409 12.5033V11.8417C55.2409 10.7127 55.0523 9.76442 54.6751 8.99701C54.3069 8.22078 53.795 7.63419 53.1394 7.23726C52.4928 6.84032 51.7429 6.64185 50.8897 6.64185C50.0365 6.64185 49.2776 6.84473 48.6131 7.25049C47.9485 7.65624 47.4231 8.25165 47.0369 9.0367C46.6597 9.81293 46.4711 10.7479 46.4711 11.8417V12.5033C46.4711 13.6235 46.6597 14.5762 47.0369 15.3612C47.4231 16.1463 47.9619 16.7461 48.6535 17.1607C49.345 17.5752 50.1578 17.7825 51.0918 17.7825C51.7743 17.7825 52.385 17.6811 52.9239 17.4782C53.4627 17.2665 53.9118 16.971 54.271 16.5917C54.6302 16.2124 54.8862 15.7714 55.0389 15.2686L55.0793 15.1495H56.8305L56.8036 15.2818C56.6779 15.864 56.4488 16.4065 56.1166 16.9093C55.7932 17.4032 55.3801 17.8355 54.8772 18.2059C54.3743 18.5676 53.7995 18.8499 53.1529 19.0527C52.5063 19.2468 51.8057 19.3438 51.0514 19.3438Z" fill="black"/>
<path d="M35.5729 19.344C34.3964 19.344 33.3636 19.0485 32.4745 18.4576C31.5854 17.8666 30.8894 17.0374 30.3864 15.9701C29.8925 14.8939 29.6455 13.6414 29.6455 12.2124V12.1992C29.6455 10.7614 29.897 9.51325 30.3999 8.45475C30.9028 7.38743 31.5944 6.55828 32.4745 5.96728C33.3636 5.37629 34.3919 5.08079 35.5594 5.08079C36.2958 5.08079 36.9784 5.20869 37.607 5.46449C38.2357 5.7203 38.7835 6.08636 39.2505 6.56269C39.7265 7.03019 40.0947 7.58149 40.3552 8.21659H40.4091V0H42.1738V19.0927H40.4091V16.2215H40.3417C40.0813 16.8566 39.7175 17.4079 39.2505 17.8754C38.7835 18.3341 38.2402 18.6957 37.6205 18.9603C37.0008 19.2161 36.3183 19.344 35.5729 19.344ZM35.9096 17.7828C36.7898 17.7828 37.5666 17.5534 38.2402 17.0947C38.9227 16.6272 39.4526 15.9745 39.8298 15.1365C40.216 14.2897 40.4091 13.315 40.4091 12.2124V12.1992C40.4091 11.0966 40.216 10.1263 39.8298 9.28832C39.4436 8.45034 38.9137 7.80201 38.2402 7.34333C37.5666 6.87582 36.7898 6.64207 35.9096 6.64207C35.0116 6.64207 34.2257 6.87141 33.5522 7.3301C32.8876 7.77996 32.3712 8.42388 32.003 9.26186C31.6437 10.091 31.4641 11.0701 31.4641 12.1992V12.2124C31.4641 13.3415 31.6437 14.325 32.003 15.163C32.3712 16.001 32.8876 16.6493 33.5522 17.108C34.2257 17.5578 35.0116 17.7828 35.9096 17.7828Z" fill="black"/>
<path d="M117.1 19.3839C115.502 19.3839 114.316 19.0531 113.544 18.3916C112.772 17.73 112.385 16.6406 112.385 15.1235V7.81983H110.378V4.90896H112.385V1.44238H116.359V4.90896H119V7.81983H116.359V14.7001C116.359 15.3616 116.508 15.8247 116.804 16.0893C117.109 16.3451 117.558 16.473 118.151 16.473C118.331 16.473 118.488 16.4686 118.623 16.4598C118.757 16.4422 118.883 16.4245 119 16.4069V19.2384C118.784 19.2737 118.515 19.3045 118.192 19.331C117.877 19.3663 117.513 19.3839 117.1 19.3839Z" fill="black"/>
<path d="M104.774 19.0927V0H108.708V19.0927H104.774Z" fill="black"/>
<path d="M95.4926 19.3837C94.0287 19.3837 92.7624 19.0882 91.6937 18.4972C90.625 17.9062 89.7987 17.0594 89.215 15.9568C88.6312 14.8542 88.3394 13.5355 88.3394 12.0007V11.9742C88.3394 10.4482 88.6357 9.13834 89.2285 8.04456C89.8212 6.94196 90.6519 6.09516 91.7206 5.50417C92.7894 4.91317 94.0422 4.61768 95.4791 4.61768C96.925 4.61768 98.1824 4.91317 99.2511 5.50417C100.329 6.08634 101.164 6.92873 101.757 8.03133C102.349 9.12511 102.646 10.4394 102.646 11.9742V12.0007C102.646 13.5443 102.349 14.8675 101.757 15.9701C101.173 17.0727 100.347 17.9195 99.278 18.5105C98.2093 19.0926 96.9475 19.3837 95.4926 19.3837ZM95.5061 16.3538C96.1437 16.3538 96.696 16.1862 97.163 15.851C97.639 15.507 98.0027 15.013 98.2542 14.3691C98.5147 13.7163 98.6449 12.9269 98.6449 12.0007V11.9742C98.6449 11.0569 98.5147 10.2762 98.2542 9.63231C97.9938 8.98839 97.6256 8.49883 97.1496 8.16364C96.6736 7.81963 96.1168 7.64763 95.4791 7.64763C94.8505 7.64763 94.2981 7.81963 93.8222 8.16364C93.3552 8.49883 92.9914 8.98839 92.731 9.63231C92.4705 10.2762 92.3403 11.0569 92.3403 11.9742V12.0007C92.3403 12.9269 92.4661 13.7163 92.7175 14.3691C92.978 15.013 93.3462 15.507 93.8222 15.851C94.2981 16.1862 94.8594 16.3538 95.5061 16.3538Z" fill="black"/>
<path d="M77.6297 19.0927L71.123 0H75.6225L80.068 15.0042H80.1488L84.5808 0H89.0937L82.5871 19.0927H77.6297Z" fill="black"/>
<path d="M116.33 25.2179V21.624H117.566C117.852 21.624 118.087 21.672 118.27 21.7679C118.454 21.8627 118.589 21.9931 118.678 22.1592C118.766 22.3254 118.81 22.5143 118.81 22.7261C118.81 22.9378 118.766 23.1256 118.678 23.2893C118.589 23.4531 118.454 23.5818 118.272 23.6754C118.09 23.7678 117.857 23.814 117.573 23.814H116.573V23.421H117.559C117.754 23.421 117.912 23.3929 118.031 23.3367C118.151 23.2806 118.238 23.201 118.292 23.0981C118.346 22.994 118.374 22.8699 118.374 22.7261C118.374 22.5822 118.346 22.4564 118.292 22.3488C118.237 22.2411 118.149 22.1581 118.029 22.0996C117.909 22.0399 117.75 22.0101 117.552 22.0101H116.773V25.2179H116.33ZM118.052 23.6035L118.953 25.2179H118.438L117.552 23.6035H118.052Z" fill="black"/>
<path d="M111.713 25.2179V21.624H113.921V22.0101H112.156V23.2244H113.807V23.6105H112.156V24.8318H113.95V25.2179H111.713Z" fill="black"/>
<path d="M105.992 25.2179L104.991 21.624H105.441L106.206 24.5511H106.242L107.021 21.624H107.521L108.3 24.5511H108.336L109.101 21.624H109.551L108.55 25.2179H108.093L107.285 22.354H107.257L106.449 25.2179H105.992Z" fill="black"/>
<path d="M102.972 23.4208C102.972 23.7998 102.902 24.1274 102.763 24.4035C102.624 24.6796 102.432 24.8925 102.189 25.0422C101.946 25.192 101.669 25.2669 101.357 25.2669C101.045 25.2669 100.767 25.192 100.524 25.0422C100.281 24.8925 100.09 24.6796 99.9507 24.4035C99.8114 24.1274 99.7417 23.7998 99.7417 23.4208C99.7417 23.0417 99.8114 22.7142 99.9507 22.4381C100.09 22.162 100.281 21.9491 100.524 21.7993C100.767 21.6496 101.045 21.5747 101.357 21.5747C101.669 21.5747 101.946 21.6496 102.189 21.7993C102.432 21.9491 102.624 22.162 102.763 22.4381C102.902 22.7142 102.972 23.0417 102.972 23.4208ZM102.543 23.4208C102.543 23.1096 102.49 22.847 102.384 22.6329C102.279 22.4188 102.137 22.2567 101.957 22.1468C101.778 22.0368 101.578 21.9818 101.357 21.9818C101.135 21.9818 100.935 22.0368 100.755 22.1468C100.576 22.2567 100.434 22.4188 100.328 22.6329C100.223 22.847 100.17 23.1096 100.17 23.4208C100.17 23.732 100.223 23.9946 100.328 24.2087C100.434 24.4228 100.576 24.5848 100.755 24.6948C100.935 24.8047 101.135 24.8597 101.357 24.8597C101.578 24.8597 101.778 24.8047 101.957 24.6948C102.137 24.5848 102.279 24.4228 102.384 24.2087C102.49 23.9946 102.543 23.732 102.543 23.4208Z" fill="black"/>
<path d="M95.0811 25.2179V21.624H96.3174C96.6045 21.624 96.8391 21.6749 97.0214 21.7767C97.2048 21.8773 97.3406 22.0136 97.4287 22.1856C97.5169 22.3575 97.5609 22.5494 97.5609 22.7611C97.5609 22.9729 97.5169 23.1653 97.4287 23.3385C97.3418 23.5116 97.2072 23.6497 97.0249 23.7526C96.8427 23.8544 96.6092 23.9053 96.3246 23.9053H95.4384V23.5192H96.3103C96.5068 23.5192 96.6646 23.4859 96.7837 23.4192C96.9029 23.3525 96.9892 23.2624 97.0428 23.149C97.0976 23.0343 97.125 22.905 97.125 22.7611C97.125 22.6173 97.0976 22.4886 97.0428 22.3751C96.9892 22.2616 96.9023 22.1727 96.782 22.1084C96.6617 22.0428 96.502 22.0101 96.3031 22.0101H95.5241V25.2179H95.0811Z" fill="black"/>
<path d="M87.959 25.2179H86.8298V21.624H88.009C88.364 21.624 88.6677 21.696 88.9202 21.8399C89.1727 21.9826 89.3663 22.1879 89.5009 22.4558C89.6355 22.7225 89.7028 23.0419 89.7028 23.4139C89.7028 23.7883 89.6349 24.1106 89.4991 24.3808C89.3633 24.6499 89.1656 24.857 88.9059 25.0021C88.6463 25.1459 88.3306 25.2179 87.959 25.2179ZM87.2729 24.8318H87.9304C88.233 24.8318 88.4837 24.7745 88.6826 24.6599C88.8815 24.5452 89.0298 24.382 89.1275 24.1703C89.2251 23.9585 89.274 23.7064 89.274 23.4139C89.274 23.1238 89.2257 22.874 89.1293 22.6646C89.0328 22.4541 88.8887 22.2926 88.6969 22.1803C88.5051 22.0668 88.2663 22.0101 87.9804 22.0101H87.2729V24.8318Z" fill="black"/>
<path d="M82.2129 25.2179V21.624H84.4212V22.0101H82.656V23.2244H84.3069V23.6105H82.656V24.8318H84.4498V25.2179H82.2129Z" fill="black"/>
<path d="M77.3369 25.2179V24.902L79.3093 22.0101H77.3154V21.624H79.8382V21.9399L77.8657 24.8318H79.8596V25.2179H77.3369Z" fill="black"/>
<path d="M74.9599 21.624V25.2179H74.5168V21.624H74.9599Z" fill="black"/>
<path d="M70.0769 25.2179V21.624H70.52V24.8318H72.2209V25.2179H70.0769Z" fill="black"/>
<path d="M65.217 25.2179H64.7524L66.096 21.624H66.5534L67.897 25.2179H67.4324L66.339 22.1926H66.3104L65.217 25.2179ZM65.3885 23.814H67.2609V24.2001H65.3885V23.814Z" fill="black"/>
<path d="M60.2385 25.2179V21.624H61.4749C61.7608 21.624 61.9954 21.672 62.1788 21.7679C62.3623 21.8627 62.4981 21.9931 62.5862 22.1592C62.6743 22.3254 62.7184 22.5143 62.7184 22.7261C62.7184 22.9378 62.6743 23.1256 62.5862 23.2893C62.4981 23.4531 62.3629 23.5818 62.1806 23.6754C61.9984 23.7678 61.7655 23.814 61.482 23.814H60.4815V23.421H61.4677C61.6631 23.421 61.8203 23.3929 61.9394 23.3367C62.0597 23.2806 62.1467 23.201 62.2003 23.0981C62.2551 22.994 62.2825 22.8699 62.2825 22.7261C62.2825 22.5822 62.2551 22.4564 62.2003 22.3488C62.1455 22.2411 62.0579 22.1581 61.9376 22.0996C61.8173 22.0399 61.6583 22.0101 61.4606 22.0101H60.6816V25.2179H60.2385ZM61.9609 23.6035L62.8613 25.2179H62.3468L61.4606 23.6035H61.9609Z" fill="black"/>
<path d="M55.2004 22.0101V21.624H57.9447V22.0101H56.7941V25.2179H56.351V22.0101H55.2004Z" fill="black"/>
<path d="M52.904 21.624V25.2179H52.4752L50.4813 22.3961H50.4455V25.2179H50.0024V21.624H50.4312L52.4323 24.4528H52.468V21.624H52.904Z" fill="black"/>
<path d="M45.3855 25.2179V21.624H47.5938V22.0101H45.8286V23.2244H47.4795V23.6105H45.8286V24.8318H47.6224V25.2179H45.3855Z" fill="black"/>
<path d="M43.0595 22.7469H42.6164C42.5902 22.6218 42.5444 22.5118 42.4789 22.417C42.4145 22.3223 42.3359 22.2427 42.243 22.1784C42.1513 22.1129 42.0495 22.0637 41.9375 22.031C41.8255 21.9982 41.7088 21.9818 41.5873 21.9818C41.3658 21.9818 41.1651 22.0368 40.9852 22.1468C40.8065 22.2567 40.6642 22.4188 40.5582 22.6329C40.4534 22.847 40.401 23.1096 40.401 23.4208C40.401 23.732 40.4534 23.9946 40.5582 24.2087C40.6642 24.4228 40.8065 24.5848 40.9852 24.6948C41.1651 24.8047 41.3658 24.8597 41.5873 24.8597C41.7088 24.8597 41.8255 24.8434 41.9375 24.8106C42.0495 24.7778 42.1513 24.7293 42.243 24.6649C42.3359 24.5994 42.4145 24.5193 42.4789 24.4245C42.5444 24.3286 42.5902 24.2186 42.6164 24.0946H43.0595C43.0262 24.2783 42.9654 24.4427 42.8773 24.5877C42.7891 24.7328 42.6796 24.8562 42.5485 24.958C42.4175 25.0586 42.2704 25.1352 42.1072 25.1879C41.9452 25.2405 41.7719 25.2669 41.5873 25.2669C41.2752 25.2669 40.9977 25.192 40.7547 25.0422C40.5117 24.8925 40.3206 24.6796 40.1812 24.4035C40.0418 24.1274 39.9722 23.7998 39.9722 23.4208C39.9722 23.0417 40.0418 22.7142 40.1812 22.4381C40.3206 22.162 40.5117 21.9491 40.7547 21.7993C40.9977 21.6496 41.2752 21.5747 41.5873 21.5747C41.7719 21.5747 41.9452 21.601 42.1072 21.6537C42.2704 21.7063 42.4175 21.7835 42.5485 21.8853C42.6796 21.9859 42.7891 22.1088 42.8773 22.2538C42.9654 22.3977 43.0262 22.5621 43.0595 22.7469Z" fill="black"/>
<path d="M35.498 25.2179V21.624H37.7064V22.0101H35.9411V23.2244H37.592V23.6105H35.9411V24.8318H37.7349V25.2179H35.498Z" fill="black"/>
<path d="M31.4011 25.2179H30.272V21.624H31.4512C31.8061 21.624 32.1098 21.696 32.3624 21.8399C32.6149 21.9826 32.8084 22.1879 32.943 22.4558C33.0776 22.7225 33.1449 23.0419 33.1449 23.4139C33.1449 23.7883 33.077 24.1106 32.9412 24.3808C32.8055 24.6499 32.6077 24.857 32.3481 25.0021C32.0884 25.1459 31.7728 25.2179 31.4011 25.2179ZM30.7151 24.8318H31.3726C31.6751 24.8318 31.9258 24.7745 32.1247 24.6599C32.3237 24.5452 32.4719 24.382 32.5696 24.1703C32.6673 23.9585 32.7161 23.7064 32.7161 23.4139C32.7161 23.1238 32.6679 22.874 32.5714 22.6646C32.4749 22.4541 32.3308 22.2926 32.139 22.1803C31.9473 22.0668 31.7084 22.0101 31.4226 22.0101H30.7151V24.8318Z" fill="black"/>
</svg>
