<svg width="149" height="33" viewBox="0 0 149 33" fill="none" xmlns="http://www.w3.org/2000/svg">
<ellipse cx="16.0763" cy="16.6417" rx="5.674" ry="5.69706" fill="black"/>
<path d="M16.5213 13.0721C16.4828 13.074 16.4473 13.094 16.4252 13.1258L13.5454 17.2743C13.4875 17.3577 13.5469 17.472 13.6481 17.472H15.6406L15.4014 20.4797C15.3921 20.6069 15.5554 20.6656 15.6286 20.5615L18.5084 16.4132C18.5662 16.33 18.507 16.2158 18.4059 16.2156H16.4133L16.6527 13.2076C16.6587 13.1319 16.5969 13.0681 16.5213 13.0721Z" fill="white"/>
<ellipse cx="10.5206" cy="2.04295" rx="1.53671" ry="1.54295" fill="black"/>
<ellipse cx="10.5206" cy="31.2404" rx="1.53671" ry="1.54295" fill="black"/>
<ellipse cx="21.8685" cy="2.04295" rx="1.53671" ry="1.54295" fill="black"/>
<ellipse cx="21.8685" cy="31.2404" rx="1.53671" ry="1.54295" fill="black"/>
<ellipse cx="30.6161" cy="22.4574" rx="1.53671" ry="1.54295" fill="black"/>
<ellipse cx="1.53671" cy="22.4574" rx="1.53671" ry="1.54295" fill="black"/>
<ellipse cx="30.6161" cy="11.0633" rx="1.53671" ry="1.54295" fill="black"/>
<ellipse cx="1.53671" cy="11.0633" rx="1.53671" ry="1.54295" fill="black"/>
<path d="M7.56524 10.7072H2.83691V11.4194H6.85599V15.6922H9.22016V14.8614H7.56524V10.7072Z" fill="black"/>
<path d="M24.5873 10.7072H29.3157V11.4194H25.2966V15.6922H22.9324V14.8614H24.5873V10.7072Z" fill="black"/>
<path d="M7.56524 22.8135H2.83691V22.1014H6.85599V17.8286H9.22016V18.6594H7.56524V22.8135Z" fill="black"/>
<path d="M24.5873 22.8135H29.3157V22.1014H25.2966V17.8286H22.9324V18.6594H24.5873V22.8135Z" fill="black"/>
<path d="M22.2231 25.1873V29.9348H21.5139V25.8994H17.2584V23.5256H18.0859V25.1873H22.2231Z" fill="black"/>
<path d="M10.166 25.1873V29.9348H10.8753V25.8994H15.1308V23.5256H14.3033V25.1873H10.166Z" fill="black"/>
<path d="M10.166 8.09609V3.34854H10.8753V7.38396L15.1308 7.38396V9.75774H14.3033V8.09609H10.166Z" fill="black"/>
<path d="M22.2231 8.09609V3.34854H21.5139V7.38396L17.2584 7.38396V9.75774H18.0859V8.09609H22.2231Z" fill="black"/>
<path d="M81.4636 25.2604C79.8444 25.2604 78.4331 24.8878 77.2299 24.1426C76.0379 23.3861 75.1159 22.3248 74.4637 20.9586C73.8115 19.5925 73.4854 17.9779 73.4854 16.1149V16.098C73.4854 14.2463 73.8115 12.6431 74.4637 11.2882C75.1271 9.92202 76.0548 8.86634 77.2468 8.12116C78.45 7.37598 79.8444 7.00339 81.4299 7.00339C82.8018 7.00339 83.9937 7.26872 85.0058 7.79938C86.0291 8.33004 86.8443 9.02441 87.4515 9.8825C88.07 10.7406 88.458 11.6777 88.6154 12.6939L88.6323 12.8463H86.4564L86.4226 12.6939C86.1753 11.6664 85.6242 10.797 84.7696 10.0857C83.9263 9.36313 82.813 9.00183 81.4299 9.00183C80.2942 9.00183 79.299 9.29539 78.4444 9.8825C77.601 10.4583 76.9432 11.2825 76.4709 12.3552C75.9986 13.4165 75.7624 14.6754 75.7624 16.1319V16.1488C75.7624 17.6279 75.9986 18.8981 76.4709 19.9594C76.9432 21.0207 77.6066 21.8393 78.4612 22.4151C79.3271 22.9796 80.3279 23.2619 81.4636 23.2619C82.7793 23.2619 83.8644 22.9232 84.719 22.2458C85.5849 21.557 86.1528 20.6651 86.4226 19.5699L86.4564 19.4174H88.6491L88.6154 19.5529C88.4467 20.6481 88.0363 21.6248 87.3841 22.4829C86.7431 23.3409 85.9166 24.0184 84.9046 24.5152C83.8925 25.012 82.7455 25.2604 81.4636 25.2604Z" fill="black"/>
<path d="M63.9216 25.2604C62.2799 25.2604 60.863 24.8934 59.6711 24.1595C58.4791 23.4143 57.557 22.3643 56.9048 21.0094C56.2638 19.6433 55.9434 18.0343 55.9434 16.1827V16.1657C55.9434 14.3254 56.2638 12.7165 56.9048 11.339C57.557 9.96154 58.4678 8.89457 59.6373 8.1381C60.8068 7.38162 62.173 7.00339 63.7361 7.00339C65.2991 7.00339 66.6485 7.37033 67.7843 8.10423C68.9312 8.82683 69.814 9.84863 70.4324 11.1696C71.0622 12.4906 71.377 14.0318 71.377 15.7932V16.6738H57.0566V14.8955H70.2975L69.1674 16.5045V15.6577C69.1674 14.2125 68.9312 12.9987 68.459 12.0164C67.9979 11.0229 67.357 10.272 66.5361 9.76395C65.7264 9.25587 64.7875 9.00183 63.7192 9.00183C62.651 9.00183 61.7008 9.26152 60.8686 9.78089C60.0365 10.3003 59.3787 11.0624 58.8952 12.0672C58.4229 13.0608 58.1867 14.2576 58.1867 15.6577V16.5045C58.1867 17.9384 58.4229 19.1578 58.8952 20.1626C59.3787 21.1675 60.0534 21.9353 60.9192 22.4659C61.7851 22.9966 62.8028 23.2619 63.9722 23.2619C64.8269 23.2619 65.5915 23.1321 66.2662 22.8724C66.9409 22.6014 67.5031 22.2232 67.9529 21.7377C68.4027 21.2522 68.7232 20.6876 68.9144 20.0441L68.965 19.8917H71.1577L71.124 20.061C70.9666 20.8062 70.6798 21.5006 70.2638 22.1441C69.859 22.7764 69.3417 23.3297 68.712 23.8039C68.0823 24.2668 67.3626 24.6281 66.5529 24.8878C65.7433 25.1362 64.8662 25.2604 63.9216 25.2604Z" fill="black"/>
<path d="M44.541 25.2604C43.068 25.2604 41.7748 24.8821 40.6615 24.1257C39.5483 23.3692 38.6768 22.3079 38.0471 20.9417C37.4286 19.5642 37.1194 17.961 37.1194 16.1319V16.115C37.1194 14.2746 37.4342 12.677 38.064 11.3221C38.6937 9.95591 39.5595 8.89459 40.6615 8.13812C41.7748 7.38165 43.0623 7.00341 44.5242 7.00341C45.4463 7.00341 46.3009 7.16712 47.088 7.49455C47.8752 7.82198 48.5611 8.29054 49.1458 8.90024C49.7418 9.49864 50.2029 10.2043 50.529 11.0172H50.5964V0.5H52.8061V24.9386H50.5964V21.2635H50.5121C50.186 22.0764 49.7306 22.7821 49.1458 23.3805C48.5611 23.9676 47.8808 24.4305 47.1049 24.7692C46.329 25.0967 45.4744 25.2604 44.541 25.2604ZM44.9627 23.2619C46.0647 23.2619 47.0374 22.9684 47.8808 22.3813C48.7354 21.7829 49.3988 20.9474 49.8711 19.8747C50.3547 18.7908 50.5964 17.5432 50.5964 16.1319V16.115C50.5964 14.7036 50.3547 13.4617 49.8711 12.389C49.3876 11.3164 48.7241 10.4866 47.8808 9.89946C47.0374 9.30105 46.0647 9.00185 44.9627 9.00185C43.8382 9.00185 42.8543 9.29541 42.0109 9.88252C41.1788 10.4583 40.5322 11.2826 40.0712 12.3552C39.6214 13.4165 39.3965 14.6698 39.3965 16.115V16.1319C39.3965 17.5771 39.6214 18.836 40.0712 19.9086C40.5322 20.9812 41.1788 21.8111 42.0109 22.3982C42.8543 22.974 43.8382 23.2619 44.9627 23.2619Z" fill="black"/>
<path d="M146.622 25.3112C144.62 25.3112 143.136 24.8878 142.169 24.041C141.202 23.1942 140.718 21.7998 140.718 19.8578V10.5091H138.205V6.78323H140.718V2.34601H145.694V6.78323H149V10.5091H145.694V19.3158C145.694 20.1626 145.879 20.7554 146.251 21.0941C146.633 21.4215 147.195 21.5853 147.937 21.5853C148.162 21.5853 148.359 21.5796 148.528 21.5683C148.696 21.5457 148.854 21.5232 149 21.5006V25.1249C148.73 25.17 148.393 25.2096 147.988 25.2434C147.594 25.2886 147.139 25.3112 146.622 25.3112Z" fill="black"/>
<path d="M131.188 24.9386V0.5H136.114V24.9386H131.188Z" fill="black"/>
<path d="M119.566 25.3112C117.734 25.3112 116.148 24.9329 114.81 24.1765C113.472 23.42 112.437 22.3361 111.706 20.9248C110.975 19.5134 110.61 17.8255 110.61 15.8609V15.827C110.61 13.8738 110.981 12.1971 111.723 10.7971C112.465 9.38573 113.505 8.30183 114.844 7.54535C116.182 6.78888 117.75 6.41064 119.55 6.41064C121.36 6.41064 122.934 6.78888 124.272 7.54535C125.622 8.29054 126.668 9.36879 127.41 10.7801C128.152 12.1802 128.523 13.8625 128.523 15.827V15.8609C128.523 17.8368 128.152 19.5304 127.41 20.9417C126.679 22.353 125.644 23.4369 124.306 24.1934C122.968 24.9386 121.388 25.3112 119.566 25.3112ZM119.583 21.4328C120.382 21.4328 121.073 21.2183 121.658 20.7893C122.254 20.3489 122.709 19.7167 123.024 18.8924C123.35 18.0569 123.513 17.0464 123.513 15.8609V15.827C123.513 14.6528 123.35 13.6536 123.024 12.8294C122.698 12.0052 122.237 11.3785 121.641 10.9495C121.045 10.5091 120.348 10.289 119.55 10.289C118.762 10.289 118.071 10.5091 117.475 10.9495C116.89 11.3785 116.435 12.0052 116.109 12.8294C115.783 13.6536 115.619 14.6528 115.619 15.827V15.8609C115.619 17.0464 115.777 18.0569 116.092 18.8924C116.418 19.7167 116.879 20.3489 117.475 20.7893C118.071 21.2183 118.774 21.4328 119.583 21.4328Z" fill="black"/>
<path d="M97.2004 24.9386L89.0535 0.5H94.6872L100.253 19.7054H100.355L105.904 0.5H111.555L103.408 24.9386H97.2004Z" fill="black"/>
<path d="M145.657 32.7787V28.1785H147.205C147.563 28.1785 147.857 28.2399 148.086 28.3627C148.316 28.484 148.486 28.6509 148.596 28.8636C148.707 29.0762 148.762 29.3181 148.762 29.5891C148.762 29.8601 148.707 30.1005 148.596 30.3101C148.486 30.5198 148.317 30.6845 148.088 30.8043C147.86 30.9226 147.569 30.9817 147.214 30.9817H145.961V30.4786H147.196C147.44 30.4786 147.637 30.4426 147.786 30.3708C147.937 30.2989 148.046 30.1971 148.113 30.0653C148.182 29.932 148.216 29.7733 148.216 29.5891C148.216 29.4049 148.182 29.2439 148.113 29.1062C148.044 28.9684 147.935 28.8621 147.784 28.7872C147.634 28.7108 147.434 28.6727 147.187 28.6727H146.212V32.7787H145.657ZM147.813 30.7122L148.941 32.7787H148.296L147.187 30.7122H147.813Z" fill="black"/>
<path d="M139.876 32.7787V28.1785H142.641V28.6727H140.431V30.227H142.498V30.7212H140.431V32.2845H142.677V32.7787H139.876Z" fill="black"/>
<path d="M132.712 32.7787L131.46 28.1785H132.023L132.981 31.9251H133.026L134.001 28.1785H134.627L135.603 31.9251H135.648L136.605 28.1785H137.169L135.916 32.7787H135.343L134.332 29.1129H134.296L133.285 32.7787H132.712Z" fill="black"/>
<path d="M128.931 30.4786C128.931 30.9637 128.844 31.383 128.67 31.7364C128.495 32.0898 128.256 32.3624 127.952 32.554C127.647 32.7457 127.3 32.8415 126.909 32.8415C126.518 32.8415 126.171 32.7457 125.867 32.554C125.562 32.3624 125.323 32.0898 125.148 31.7364C124.974 31.383 124.887 30.9637 124.887 30.4786C124.887 29.9934 124.974 29.5741 125.148 29.2207C125.323 28.8673 125.562 28.5948 125.867 28.4031C126.171 28.2114 126.518 28.1156 126.909 28.1156C127.3 28.1156 127.647 28.2114 127.952 28.4031C128.256 28.5948 128.495 28.8673 128.67 29.2207C128.844 29.5741 128.931 29.9934 128.931 30.4786ZM128.394 30.4786C128.394 30.0803 128.328 29.7441 128.195 29.47C128.064 29.196 127.886 28.9886 127.661 28.8479C127.437 28.7071 127.186 28.6367 126.909 28.6367C126.632 28.6367 126.38 28.7071 126.155 28.8479C125.931 28.9886 125.753 29.196 125.62 29.47C125.489 29.7441 125.424 30.0803 125.424 30.4786C125.424 30.8769 125.489 31.2131 125.62 31.4871C125.753 31.7611 125.931 31.9685 126.155 32.1093C126.38 32.2501 126.632 32.3204 126.909 32.3204C127.186 32.3204 127.437 32.2501 127.661 32.1093C127.886 31.9685 128.064 31.7611 128.195 31.4871C128.328 31.2131 128.394 30.8769 128.394 30.4786Z" fill="black"/>
<path d="M119.051 32.7787V28.1785H120.599C120.959 28.1785 121.252 28.2436 121.48 28.3739C121.71 28.5027 121.88 28.6771 121.991 28.8973C122.101 29.1174 122.156 29.363 122.156 29.634C122.156 29.9051 122.101 30.1514 121.991 30.373C121.882 30.5946 121.713 30.7713 121.485 30.9031C121.257 31.0334 120.964 31.0985 120.608 31.0985H119.498V30.6044H120.59C120.836 30.6044 121.034 30.5617 121.183 30.4763C121.332 30.391 121.44 30.2757 121.507 30.1304C121.576 29.9837 121.61 29.8182 121.61 29.634C121.61 29.4498 121.576 29.2851 121.507 29.1399C121.44 28.9946 121.331 28.8808 121.181 28.7984C121.03 28.7146 120.83 28.6727 120.581 28.6727H119.606V32.7787H119.051Z" fill="black"/>
<path d="M110.134 32.7787H108.72V28.1785H110.196C110.641 28.1785 111.021 28.2706 111.337 28.4548C111.653 28.6375 111.896 28.9003 112.064 29.2432C112.233 29.5846 112.317 29.9934 112.317 30.4696C112.317 30.9488 112.232 31.3613 112.062 31.7072C111.892 32.0516 111.644 32.3167 111.319 32.5024C110.994 32.6866 110.599 32.7787 110.134 32.7787ZM109.275 32.2845H110.098C110.477 32.2845 110.791 32.2111 111.04 32.0644C111.289 31.9176 111.474 31.7087 111.597 31.4377C111.719 31.1667 111.78 30.844 111.78 30.4696C111.78 30.0982 111.72 29.7785 111.599 29.5105C111.478 29.2409 111.298 29.0343 111.057 28.8905C110.817 28.7453 110.518 28.6727 110.16 28.6727H109.275V32.2845Z" fill="black"/>
<path d="M102.939 32.7787V28.1785H105.704V28.6727H103.494V30.227H105.561V30.7212H103.494V32.2845H105.74V32.7787H102.939Z" fill="black"/>
<path d="M96.8335 32.7787V32.3743L99.3032 28.6727H96.8066V28.1785H99.9654V28.5828L97.4957 32.2845H99.9922V32.7787H96.8335Z" fill="black"/>
<path d="M93.8575 28.1785V32.7787H93.3027V28.1785H93.8575Z" fill="black"/>
<path d="M87.7434 32.7787V28.1785H88.2982V32.2845H90.4279V32.7787H87.7434Z" fill="black"/>
<path d="M81.6583 32.7787H81.0767L82.7589 28.1785H83.3316L85.0139 32.7787H84.4323L83.0632 28.9063H83.0274L81.6583 32.7787ZM81.8731 30.9817H84.2175V31.4759H81.8731V30.9817Z" fill="black"/>
<path d="M75.4248 32.7787V28.1785H76.9729C77.3308 28.1785 77.6246 28.2399 77.8543 28.3627C78.0839 28.484 78.254 28.6509 78.3643 28.8636C78.4747 29.0762 78.5299 29.3181 78.5299 29.5891C78.5299 29.8601 78.4747 30.1005 78.3643 30.3101C78.254 30.5198 78.0847 30.6845 77.8565 30.8043C77.6283 30.9226 77.3368 30.9817 76.9818 30.9817H75.729V30.4786H76.9639C77.2085 30.4786 77.4054 30.4426 77.5545 30.3708C77.7051 30.2989 77.814 30.1971 77.8811 30.0653C77.9497 29.932 77.984 29.7733 77.984 29.5891C77.984 29.4049 77.9497 29.2439 77.8811 29.1062C77.8125 28.9684 77.7029 28.8621 77.5523 28.7872C77.4016 28.7108 77.2025 28.6727 76.955 28.6727H75.9796V32.7787H75.4248ZM77.5813 30.7122L78.7088 32.7787H78.0646L76.955 30.7122H77.5813Z" fill="black"/>
<path d="M69.1167 28.6727V28.1785H72.5528V28.6727H71.1122V32.7787H70.5574V28.6727H69.1167Z" fill="black"/>
<path d="M66.2412 28.1785V32.7787H65.7043L63.2077 29.1668H63.1629V32.7787H62.6082V28.1785H63.1451L65.6506 31.7993H65.6953V28.1785H66.2412Z" fill="black"/>
<path d="M56.8271 32.7787V28.1785H59.5922V28.6727H57.3819V30.227H59.449V30.7212H57.3819V32.2845H59.628V32.7787H56.8271Z" fill="black"/>
<path d="M53.9147 29.616H53.3599C53.3271 29.4558 53.2697 29.3151 53.1877 29.1938C53.1072 29.0725 53.0087 28.9706 52.8924 28.8883C52.7776 28.8044 52.65 28.7415 52.5099 28.6996C52.3697 28.6577 52.2235 28.6367 52.0714 28.6367C51.794 28.6367 51.5427 28.7071 51.3175 28.8479C51.0938 28.9886 50.9156 29.196 50.7828 29.47C50.6516 29.7441 50.586 30.0803 50.586 30.4786C50.586 30.8769 50.6516 31.2131 50.7828 31.4871C50.9156 31.7611 51.0938 31.9685 51.3175 32.1093C51.5427 32.2501 51.794 32.3204 52.0714 32.3204C52.2235 32.3204 52.3697 32.2995 52.5099 32.2575C52.65 32.2156 52.7776 32.1535 52.8924 32.0711C53.0087 31.9873 53.1072 31.8847 53.1877 31.7634C53.2697 31.6406 53.3271 31.4998 53.3599 31.3411H53.9147C53.873 31.5762 53.7969 31.7866 53.6866 31.9723C53.5762 32.158 53.439 32.3159 53.2749 32.4462C53.1109 32.575 52.9267 32.6731 52.7224 32.7405C52.5196 32.8079 52.3026 32.8415 52.0714 32.8415C51.6806 32.8415 51.3332 32.7457 51.0289 32.554C50.7247 32.3624 50.4853 32.0898 50.3108 31.7364C50.1363 31.383 50.0491 30.9637 50.0491 30.4786C50.0491 29.9934 50.1363 29.5741 50.3108 29.2207C50.4853 28.8673 50.7247 28.5948 51.0289 28.4031C51.3332 28.2114 51.6806 28.1156 52.0714 28.1156C52.3026 28.1156 52.5196 28.1493 52.7224 28.2167C52.9267 28.2841 53.1109 28.3829 53.2749 28.5132C53.439 28.642 53.5762 28.7992 53.6866 28.9849C53.7969 29.1691 53.873 29.3794 53.9147 29.616Z" fill="black"/>
<path d="M44.4473 32.7787V28.1785H47.2123V28.6727H45.0021V30.227H47.0691V30.7212H45.0021V32.2845H47.2481V32.7787H44.4473Z" fill="black"/>
<path d="M39.3174 32.7787H37.9036V28.1785H39.38C39.8245 28.1785 40.2048 28.2706 40.5209 28.4548C40.8371 28.6375 41.0795 28.9003 41.248 29.2432C41.4165 29.5846 41.5008 29.9934 41.5008 30.4696C41.5008 30.9488 41.4158 31.3613 41.2458 31.7072C41.0757 32.0516 40.8282 32.3167 40.503 32.5024C40.1779 32.6866 39.7827 32.7787 39.3174 32.7787ZM38.4584 32.2845H39.2816C39.6604 32.2845 39.9744 32.2111 40.2234 32.0644C40.4725 31.9176 40.6582 31.7087 40.7804 31.4377C40.9027 31.1667 40.9639 30.844 40.9639 30.4696C40.9639 30.0982 40.9035 29.7785 40.7827 29.5105C40.6619 29.2409 40.4814 29.0343 40.2413 28.8905C40.0012 28.7453 39.7022 28.6727 39.3442 28.6727H38.4584V32.2845Z" fill="black"/>
</svg>
